<?xml version="1.0" encoding="UTF-8"?>
<svg width="232px" height="43px" viewBox="0 0 232 43" version="1.1" xmlns="http://www.w3.org/2000/svg" xmlns:xlink="http://www.w3.org/1999/xlink">
    <!-- Generator: sketchtool 64 (101010) - https://sketch.com -->
    <title>F350F6C6-85D0-45D7-A84E-5F57759E13CE</title>
    <desc>Created with sketchtool.</desc>
    <g id="Page-1" stroke="none" stroke-width="1" fill="none" fill-rule="evenodd">
        <g id="Home-(Stack)" transform="translate(-24.000000, -3690.000000)" fill="#FFFFFF" fill-rule="nonzero">
            <g id="Footer" transform="translate(0.000000, 3650.000000)">
                <g id="Footer/Department/footer-dept-mobile">
                    <g id="Uxd_Wht_StratComm_C" transform="translate(24.000000, 40.000000)">
                        <path d="M31.2707301,0.549182417 C33.263645,0.520988349 35.2199684,1.07688943 36.8903663,2.14603591 L36.4005815,7.21541207 C35.1186263,5.49047896 33.0258735,4.53339002 30.8582798,4.68072399 C26.3127331,4.68072399 23.8208455,7.78994137 23.4599514,11.7187079 C23.0990574,15.6474744 25.1269383,18.6637532 29.5350015,18.6637532 C31.853394,18.6848878 34.0715573,17.7356687 35.6358298,16.0530245 L35.1546377,21.2829309 C33.3509167,22.3120406 31.3106418,22.8731786 29.2256638,22.9135802 C21.990597,22.9135802 18.6738087,17.6329801 19.1979644,11.8538913 L19.1721862,11.8285444 C19.7307128,5.66080338 23.958329,0.549182417 31.2707301,0.549182417 Z M5.45821175,0.980079391 L4.30678783,13.9407844 C4.04900636,16.7458393 5.16605941,18.7482428 8.01884107,18.7482428 C10.8716227,18.7482428 12.4698679,16.7120434 12.7276494,14.2280491 L13.9392223,0.980079391 L18.2355802,0.980079391 L17.0068218,14.0590699 C16.5256298,19.128446 13.131507,22.8628865 7.64076158,22.8628865 C3.34440366,22.8628865 0.594734589,20.1423213 0.070578923,16.2051058 C0.00546119471,15.4154449 -0.0146199304,14.6228174 0.0104299122,13.830948 L1.16185383,0.980079391 L5.45821175,0.980079391 Z M44.5980324,0.980079391 L42.9740091,18.4271823 L49.0920228,18.4271823 C49.5216586,18.4271823 50.9738275,18.4271823 51.3690925,18.3849375 C51.3690925,18.5961615 50.9824203,22.4150916 50.9824203,22.4150916 L38.3683134,22.4150916 L40.3016745,0.980079391 L44.5980324,0.980079391 Z M63.5965271,-3.25438807e-13 L71.6049383,22.4150916 L67.076577,22.4150916 L66.0540438,19.0355075 L57.8222221,19.0355075 L56.1810133,22.4150916 L51.6440594,22.4150916 L63.3043748,-3.25438807e-13 L63.5965271,-3.25438807e-13 Z M62.9177026,8.08565498 L62.8489608,8.08565498 C62.7682719,8.39229159 62.6619327,8.69184223 62.5310303,8.98124476 L62.5310303,8.98124476 C62.4708813,9.13332605 59.5837288,15.4024546 59.5837288,15.4024546 L59.5837288,15.4024546 L64.9713616,15.4024546 C64.9713616,15.4024546 63.3129675,9.96977312 63.0723714,8.99814269 C62.9916171,8.69946685 62.9398293,8.39393859 62.9177026,8.08565498 L62.9177026,8.08565498 Z" id="Combined-Shape"></path>
                        <path d="M85.4502399,27.3273749 C89.1172043,27.3273749 91.2813144,29.5362734 91.590473,32.3861856 L88.5933522,32.3861856 C88.3555404,30.8523414 86.9841499,29.7638392 85.4502399,29.8914297 C82.7021635,29.8914297 81.3882395,32.195614 81.3882395,35.1841237 C81.3882395,38.1726335 82.9769711,40.4508307 85.4760031,40.4508307 C87.0718307,40.5741396 88.4821224,39.4109333 88.6792296,37.8088149 L91.6334117,37.8088149 C91.5546187,39.1600724 90.9680267,40.4301884 89.9931536,41.3603772 C88.7532164,42.469144 87.1307595,43.0416262 85.4760031,42.954249 C81.2851866,42.954249 78.3052413,39.6972065 78.3052413,35.1841237 C78.3052413,30.7316773 81.0619054,27.3273749 85.4502399,27.3273749 Z M204.936742,31.6933422 C208.011668,31.7155513 210.489688,34.2420174 210.478804,37.3437183 C210.467848,40.4454191 207.972102,42.9540692 204.897097,42.954249 C203.393029,42.998691 201.93817,42.4113033 200.879891,41.3323341 C199.821611,40.2533648 199.2549,38.7796591 199.315067,37.263087 C199.348182,34.1615465 201.861815,31.6711332 204.936742,31.6933422 Z M98.056613,31.6933698 C101.132644,31.7171803 103.609829,34.2466874 103.595809,37.3495013 C103.58167,40.4523152 101.081632,42.9588427 98.0055138,42.954249 C96.5029152,42.9962437 95.0503426,42.4077769 93.9939679,41.32909 C92.9375932,40.250403 92.3720337,38.7781117 92.4320714,37.263087 C92.4652022,34.1604206 94.9805818,31.6695593 98.056613,31.6933698 Z M171.774189,31.571925 C174.548028,31.571925 176.256988,33.1831215 176.626261,35.5219553 L173.861009,35.5219553 C173.707708,34.5544034 172.87432,33.8465059 171.903005,33.8587846 C170.185457,33.8587846 169.326683,35.1841237 169.326683,37.263087 C169.326683,39.3420503 170.142518,40.6673894 171.903005,40.6673894 C172.993646,40.7525179 173.949913,39.9384162 174.04994,38.8396342 L176.772253,38.8396342 C176.59191,41.1264938 174.814248,42.954249 171.963119,42.954249 C168.553787,42.954249 166.449791,40.4768178 166.449791,37.263087 C166.449791,34.0493563 168.528024,31.571925 171.774189,31.571925 Z M142.361184,31.8664448 L142.361184,38.5624391 C142.361184,39.8271417 142.919387,40.5201295 144.130258,40.5201295 C144.755051,40.5212651 145.349592,40.2488917 145.759854,39.7735733 C146.170116,39.298255 146.355729,38.6667628 146.268605,38.0426982 L146.268605,31.8664448 L149.102559,31.8664448 L149.102559,42.6424045 L146.380246,42.6424045 L146.380246,41.3777019 L146.311544,41.3777019 C145.640444,42.4095078 144.475944,43.0034151 143.254309,42.9369243 C140.875505,42.9369243 139.544406,41.3950266 139.544406,39.0475305 L139.544406,31.8664448 L142.361184,31.8664448 Z M227.190866,31.545938 C229.999057,31.545938 231.562025,32.9492382 231.768131,35.1148249 L229.191809,35.1148249 C229.071581,33.9627328 228.333036,33.5382778 227.130752,33.5382778 C225.928469,33.5382778 225.301564,33.9627328 225.301564,34.7336817 C225.301564,35.6605528 226.709953,35.7471763 228.23857,36.0590208 C230.02482,36.440164 232,36.9252555 232,39.4633232 C232,41.6289099 230.170812,42.928262 227.508613,42.928262 C224.417027,42.954249 222.690891,41.4383383 222.527724,39.1514787 L225.146985,39.1514787 C225.335915,40.3901943 226.211864,40.9359222 227.482849,40.9359222 C228.753835,40.9359222 229.440854,40.4508307 229.440854,39.6972065 C229.440854,38.6663872 228.083991,38.5624391 226.624076,38.2679193 C224.70901,37.8954383 222.836883,37.4016846 222.836883,35.0108768 C222.836883,32.620069 224.751949,31.545938 227.190866,31.545938 Z M182.526038,31.5892497 C185.651974,31.5892497 187.026013,33.044524 187.026013,35.5566046 L187.026013,41.0398703 C187.026013,41.906105 187.146241,42.3478847 187.395285,42.529794 L187.395285,42.6424045 L184.672972,42.6424045 C184.474597,42.2709026 184.36022,41.8597086 184.33805,41.4383383 L184.295112,41.4383383 C183.754084,42.304573 182.981188,42.8936126 181.151999,42.8936126 C178.962126,42.8936126 177.424921,41.7328581 177.424921,39.5932584 C177.424921,37.2197753 179.339987,36.4661511 181.71879,36.1283195 C183.487864,35.8771115 184.295112,35.7298516 184.295112,34.9069286 C184.295112,34.0840056 183.69397,33.6249012 182.500274,33.6249012 C181.169175,33.6249012 180.525095,34.1099927 180.439217,35.140812 L177.92301,35.140812 C178.008887,33.2524203 179.400101,31.5892497 182.526038,31.5892497 Z M156.865875,31.597912 C159.072923,31.597912 160.558602,33.2784074 160.558602,35.6259034 L160.558602,42.6683916 L157.724648,42.6683916 L157.724648,36.0243714 C157.77785,35.5042896 157.603359,34.9866897 157.246873,34.6071303 C156.890388,34.227571 156.38742,34.0238627 155.869697,34.0493563 C155.248742,34.0654734 154.66251,34.3417794 154.25186,34.8118831 C153.84121,35.2819867 153.643265,35.9033923 153.705587,36.5267875 L153.705587,42.6424045 L150.871633,42.6424045 L150.871633,31.8664448 L153.645473,31.8664448 L153.645473,33.3303814 L153.705587,33.3303814 C154.351139,32.1982745 155.572938,31.5284845 156.865875,31.597912 Z M217.778705,31.597912 C219.985754,31.597912 221.471432,33.2784074 221.471432,35.6259034 L221.471432,42.6683916 L218.637479,42.6683916 L218.637479,36.0243714 C218.69068,35.5042896 218.516189,34.9866897 218.159704,34.6071303 C217.803218,34.227571 217.30025,34.0238627 216.782527,34.0493563 C216.160673,34.0628793 215.572843,34.3384334 215.161639,34.8091715 C214.750436,35.2799095 214.553431,35.902819 214.618417,36.5267875 L214.618417,42.6424045 L211.784463,42.6424045 L211.784463,31.8664448 L214.558303,31.8664448 L214.523952,33.3303814 L214.618417,33.3303814 C215.26397,32.1982745 216.485769,31.5284845 217.778705,31.597912 Z M134.357412,31.5805873 C136.598811,31.5805873 137.869797,33.0531863 137.869797,35.4006824 L137.869797,42.6510669 L135.044431,42.6510669 L135.044431,35.8771115 C135.044431,34.6557205 134.434701,34.0233692 133.395585,34.0233692 C132.210477,34.0233692 131.480519,34.9502403 131.480519,36.3795276 L131.480519,42.6424045 L128.646565,42.6424045 L128.646565,35.8771115 C128.646565,34.6557205 128.045424,34.0233692 127.006307,34.0233692 C125.967191,34.0233692 125.091242,34.9502403 125.091242,36.3795276 L125.091242,42.6424045 L122.257288,42.6424045 L122.257288,31.8664448 L124.979601,31.8664448 L124.979601,33.3130568 L125.048303,33.3130568 C125.691953,32.2093394 126.879465,31.5457224 128.148476,31.5805873 C129.419597,31.5552934 130.582644,32.2987443 131.102659,33.468979 L131.145597,33.468979 C131.806343,32.307421 133.02978,31.5880995 134.357412,31.5805873 Z M116.958653,31.5805873 C119.208641,31.5805873 120.479626,33.0531863 120.479626,35.4006824 L120.479626,42.6510669 L117.645672,42.6510669 L117.645672,35.8771115 C117.645672,34.6557205 117.04453,34.0233692 116.005414,34.0233692 C114.820306,34.0233692 114.090348,34.9502403 114.090348,36.3795276 L114.090348,42.6424045 L111.256395,42.6424045 L111.256395,35.8771115 C111.256395,34.6557205 110.655253,34.0233692 109.616136,34.0233692 C108.57702,34.0233692 107.701071,34.9502403 107.701071,36.3795276 L107.701071,42.6424045 L104.867117,42.6424045 L104.867117,31.8664448 L107.58943,31.8664448 L107.58943,33.3130568 L107.658132,33.3130568 C108.301783,32.2093394 109.489294,31.5457224 110.758306,31.5805873 C112.029426,31.5552934 113.192474,32.2987443 113.712488,33.468979 L113.755426,33.468979 C114.413341,32.3087903 115.633615,31.5894045 116.958653,31.5805873 Z M165.170218,31.8924318 L165.170218,42.6424045 L162.336264,42.6424045 L162.336264,31.8924318 L165.170218,31.8924318 Z M198.069845,31.8924318 L198.069845,42.6424045 L195.244479,42.6424045 L195.244479,31.8924318 L198.069845,31.8924318 Z M192.084191,28.5141165 L192.084191,31.8751071 L193.921967,31.8751071 L193.921967,33.7634988 L192.084191,33.7634988 L192.084191,39.4719855 C192.04674,39.7661012 192.147172,40.0610393 192.355886,40.2698683 C192.564599,40.4786973 192.857801,40.5776107 193.14907,40.5374542 L194.007844,40.5374542 L194.007844,42.6337422 L192.23877,42.6337422 L192.23877,42.6337422 C190.864732,42.6337422 189.344702,42.0880143 189.344702,40.0350381 L189.344702,33.7115247 L187.867611,33.7115247 L187.841848,31.8664448 L189.318939,31.8664448 L189.318939,28.5141165 L192.084191,28.5141165 Z M184.33805,37.2197753 C183.709221,37.5150108 183.045394,37.7275341 182.362871,37.8521266 C180.88578,38.1812958 180.155822,38.5191273 180.155822,39.5326219 C180.155822,40.5461165 180.817078,40.8926104 181.821843,40.8926104 C183.462101,40.8926104 184.355226,39.8877782 184.355226,38.8396342 L184.33805,38.8396342 L184.33805,37.2197753 Z M204.897097,33.7288494 C203.170961,33.7288494 202.183371,35.1581367 202.183371,37.263087 C202.183371,39.3680373 203.145198,40.7713376 204.897097,40.7713376 C206.648995,40.7713376 207.602234,39.359375 207.602234,37.263087 C207.602234,35.1581367 206.623232,33.7288494 204.897097,33.7288494 Z M98.0055138,33.7288494 C96.2707906,33.7288494 95.3003761,35.1581367 95.3003761,37.263087 C95.3003761,39.3680373 96.2622028,40.7713376 98.0055138,40.7713376 C99.7488247,40.7713376 100.719239,39.359375 100.719239,37.263087 C100.719239,35.1581367 99.740237,33.7288494 98.0055138,33.7288494 Z M198.069845,27.6478818 L198.069845,30.2465859 L195.244479,30.2465859 L195.244479,27.6478818 L198.069845,27.6478818 Z M165.170218,27.6478818 L165.170218,30.2465859 L162.336264,30.2465859 L162.336264,27.6478818 L165.170218,27.6478818 Z M140.884093,13.2943727 L140.927032,13.2943727 L140.927032,12.1596052 L143.657932,12.1596052 L143.657932,22.112642 C143.730437,23.3392313 143.265835,24.5361588 142.386947,25.3870092 C141.298015,26.2656622 139.922478,26.7013765 138.531052,26.6084001 C135.611221,26.6084001 133.824972,25.3436975 133.532989,23.2474095 L136.349767,23.2474095 C136.573048,23.9144102 137.208541,24.4428134 138.488114,24.4428134 C140.094021,24.4428134 140.866917,23.6632021 140.866917,22.1992655 L140.866917,21.0211863 L140.806803,21.0211863 C140.122514,21.8572546 139.089705,22.3220496 138.015788,22.2772266 C136.705253,22.2538169 135.461198,21.6908964 134.572419,20.7191413 C133.683639,19.7473863 133.227434,18.4513134 133.309707,17.1317925 C133.309707,13.9180617 135.224773,11.8650854 137.929911,11.8650854 C139.090966,11.8066033 140.202569,12.3444172 140.884093,13.2943727 Z M127.306878,11.8650854 C130.741974,11.8650854 132.57975,14.4637896 132.57975,18.3531834 L124.850785,18.3531834 C125.056891,20.016354 125.975779,21.038511 127.573098,21.038511 C128.477342,21.1248102 129.324993,20.583301 129.634155,19.7218342 L132.42517,19.7218342 C132.030134,21.6275506 130.346938,23.2474095 127.598861,23.2474095 C124.043537,23.2474095 122.042594,20.7180041 122.042594,17.5302604 C122.042594,14.3425167 124.189529,11.8650854 127.306878,11.8650854 Z M159.742767,15.8151157 L156.968927,15.8151157 C156.81907,14.8456036 155.983567,14.1359094 155.010923,14.1519451 C153.293375,14.1519451 152.434601,15.4772842 152.434601,17.5562475 C152.434601,19.6352108 153.241849,20.9605499 155.010923,20.9605499 C156.073984,21.0065027 156.98523,20.2017589 157.080568,19.1327946 L159.811469,19.1327946 C159.622539,21.4196542 157.853464,23.2474095 155.002335,23.2474095 C151.661705,23.2474095 149.557709,20.7699782 149.557709,17.5562475 C149.557709,14.3425167 151.644529,11.8650854 154.890695,11.8650854 C157.291329,11.673208 159.421906,13.4076926 159.742767,15.8151157 Z M84.4111235,7.63786008 C87.7259906,7.63786008 89.9244517,9.30103072 90.1563207,12.3241898 L87.2622527,12.3241898 C87.0990857,10.8082791 85.9311532,10.0546549 84.3853603,10.0546549 C82.8395673,10.0546549 81.7059858,10.7476427 81.7059858,11.7871243 C81.7059858,13.0085153 82.7451022,13.3636715 84.952151,13.8401006 C88.009386,14.5157636 90.5084179,15.2520631 90.5084179,18.4831186 C90.5084179,21.5322648 88.0780879,23.2300848 84.7202821,23.2300848 C80.649694,23.2647342 78.3911187,21.462966 78.2880658,18.292547 L81.2422479,18.292547 C81.4569414,20.0943151 82.4702946,20.81329 84.6000538,20.81329 C86.137259,20.81329 87.4941217,20.2675621 87.4941217,18.8815866 C87.4941217,17.495611 86.0771448,17.1491171 83.8099818,16.5860646 C81.1391951,15.9797003 78.708865,15.2693878 78.708865,12.1336182 C78.708865,9.17109551 81.0962564,7.63786008 84.4111235,7.63786008 Z M110.148576,11.8824101 C113.265925,11.8824101 114.648551,13.3376844 114.648551,15.8497651 L114.648551,21.3330308 C114.648551,22.1559537 114.777367,22.6410452 115.026412,22.8229545 L115.026412,22.935565 L112.295511,22.935565 C112.105075,22.5608765 111.991182,22.1514249 111.960589,21.7314987 L111.91765,21.7314987 C111.376623,22.5544217 110.612314,23.186773 108.774538,23.186773 C106.593252,23.186773 105.047459,22.0260185 105.047459,19.8864188 C105.047459,17.5129357 106.962525,16.7593115 109.341329,16.42148 C111.110403,16.1702719 111.91765,16.023012 111.91765,15.2000891 C111.91765,14.3771661 111.316509,13.9180617 110.131401,13.9180617 C108.800301,13.9180617 108.156221,14.4031531 108.070343,15.4339724 L105.554136,15.4339724 C105.631426,13.5455808 107.031227,11.8824101 110.148576,11.8824101 Z M104.575134,12.1162935 L104.575134,14.6543612 L104.506432,14.6543612 C102.660068,14.4724519 101.320381,15.4599595 101.320381,17.7208321 L101.320381,22.9788767 L98.4950149,22.9788767 L98.4950149,12.1596052 L101.260267,12.1596052 L101.260267,13.87475 L101.328969,13.87475 C101.973049,12.6620214 102.703007,12.02967 103.90529,12.02967 C104.131867,12.0190165 104.358549,12.0483308 104.575134,12.1162935 Z M148.286724,12.1596052 L148.286724,22.935565 L145.45277,22.935565 L145.45277,12.1596052 L148.286724,12.1596052 Z M95.4377799,8.79861459 L95.4377799,12.1596052 L97.275556,12.1596052 L97.275556,14.0479969 L95.4377799,14.0479969 L95.4377799,19.7564836 C95.3973665,20.0519904 95.4964831,20.3495342 95.7056,20.5604678 C95.9147168,20.7714015 96.2096979,20.8713792 96.5026595,20.8306146 L97.3614334,20.8306146 L97.3614334,22.9269026 L95.5923592,22.9269026 L95.5923592,22.9269026 C94.218321,22.9269026 92.6982913,22.3811748 92.6982913,20.3281985 L92.6982913,14.0479969 L91.2212003,14.0479969 L91.195437,12.1596052 L92.6725281,12.1596052 L92.6725281,8.79861459 L95.4377799,8.79861459 Z M119.715317,8.79861459 L119.715317,12.1596052 L121.544505,12.1596052 L121.544505,14.0479969 L119.715317,14.0479969 L119.715317,19.7564836 C119.674904,20.0519904 119.77402,20.3495342 119.983137,20.5604678 C120.192254,20.7714015 120.487235,20.8713792 120.780197,20.8306146 L121.638971,20.8306146 L121.638971,22.9269026 L119.861309,22.9269026 L119.861309,22.9269026 C118.48727,22.9269026 116.967241,22.3811748 116.967241,20.3281985 L116.967241,14.0479969 L115.49015,14.0479969 L115.464386,12.1596052 L116.941478,12.1596052 L116.941478,8.79861459 L119.715317,8.79861459 Z M111.960589,17.5129357 C111.329247,17.8094208 110.662419,18.0219808 109.976821,18.1452871 C108.49973,18.4744562 107.769773,18.8122878 107.769773,19.8257824 C107.769773,20.839277 108.439616,21.1857709 109.435794,21.1857709 C111.08464,21.1857709 111.986352,20.1809386 111.986352,19.1327946 L111.960589,19.1327946 L111.960589,17.5129357 Z M138.436587,14.1519451 C137.002435,14.1519451 136.040608,15.2867125 136.040608,17.0884807 C136.040608,18.8902489 137.002435,19.990367 138.453763,19.990367 C140.282951,19.990367 141.012909,18.6650279 141.012909,17.071156 C141.012909,15.4946089 140.154135,14.1519451 138.436587,14.1519451 Z M127.332641,14.0739839 C125.85555,14.0653216 125.125592,14.974868 124.876548,16.3868306 L129.599804,16.3868306 C129.611411,15.774427 129.377123,15.183292 128.950172,14.7477382 C128.523222,14.3121843 127.939863,14.0691963 127.332641,14.0739839 Z M148.286724,7.91505519 L148.286724,10.5137593 L145.45277,10.5137593 L145.45277,7.91505519 L148.286724,7.91505519 Z" id="Combined-Shape"></path>
                    </g>
                </g>
            </g>
        </g>
    </g>
</svg>