<?xml version="1.0" encoding="UTF-8"?>
<svg width="12px" height="13px" viewBox="0 0 12 13" version="1.1" xmlns="http://www.w3.org/2000/svg" xmlns:xlink="http://www.w3.org/1999/xlink">
    <!-- Generator: sketchtool 52.6 (67491) - http://www.bohemiancoding.com/sketch -->
    <title>64D95673-D07F-4B97-9CFA-B2D075BC2242</title>
    <desc>Created with sketchtool.</desc>
    <g id="Homepage" stroke="none" stroke-width="1" fill="none" fill-rule="evenodd">
        <g id="Desktop-(XL)" transform="translate(-122.000000, -1290.000000)">
            <g id="Events" transform="translate(1.000000, 964.000000)">
                <g id="Event-1" transform="translate(94.000000, 69.000000)">
                    <g id="Content" transform="translate(1.000000, 184.000000)">
                        <g transform="translate(24.000000, 24.000000)" id="Time-(required)">
                            <g transform="translate(0.000000, 49.000000)">
                                <g id="Icon/Time-Baseline">
                                    <polygon id="Path" points="0 0 16 0 16 16 0 16"></polygon>
                                    <path d="M7.994,0.666666667 C11.312,0.666666667 14,3.35466667 14,6.66666667 C14,9.97866667 11.312,12.6666667 7.994,12.6666667 C4.682,12.6666667 2,9.97866667 2,6.66666667 C2,3.35466667 4.682,0.666666667 7.994,0.666666667 Z M8,11.4666667 C10.652,11.4666667 12.8,9.31866667 12.8,6.66666667 C12.8,4.01466667 10.652,1.86666667 8,1.86666667 C5.348,1.86666667 3.2,4.01466667 3.2,6.66666667 C3.2,9.31866667 5.348,11.4666667 8,11.4666667 Z M8.3,3.66666667 L8.3,6.81666667 L11,8.41866667 L10.55,9.15666667 L7.4,7.26666667 L7.4,3.66666667 L8.3,3.66666667 Z" id="Combined-Shape" fill="#666666" fill-rule="nonzero"></path>
                                </g>
                            </g>
                        </g>
                    </g>
                </g>
            </g>
        </g>
    </g>
</svg>
