<?xml version="1.0" encoding="utf-8"?>
<!-- Generator: Adobe Illustrator 22.1.0, SVG Export Plug-In . SVG Version: 6.00 Build 0)  -->
<svg version="1.1" id="Layer_1" xmlns="http://www.w3.org/2000/svg" xmlns:xlink="http://www.w3.org/1999/xlink" x="0px" y="0px"
	 viewBox="0 0 18 18" style="enable-background:new 0 0 18 18;" xml:space="preserve">
<style type="text/css">
	.st0{fill:none;}
	.st1{fill:#666666;}
</style>
<title>Icon</title>
<desc>Created with Sketch.</desc>
<g id="Symbols">
	
		<g id="Navigation_x2F_Desktop_x2F_Elements_x2F_Nav-Item-_x28_Icon-only_x29__x2F_Default" transform="translate(-15.000000, -15.000000)">
		<g id="Nav-Item">
			<g id="Icon_x2F_Search" transform="translate(12.000000, 12.000000)">
				<polygon id="Path" class="st0" points="0,0 24,0 24,24 0,24 				"/>
				<path id="Shape" class="st1" d="M15.5,14h-0.8l-0.3-0.3c1-1.1,1.6-2.6,1.6-4.2C16,5.9,13.1,3,9.5,3S3,5.9,3,9.5S5.9,16,9.5,16
					c1.6,0,3.1-0.6,4.2-1.6l0.3,0.3v0.8l5,5l1.5-1.5L15.5,14z M9.5,14C7,14,5,12,5,9.5S7,5,9.5,5S14,7,14,9.5S12,14,9.5,14z"/>
			</g>
		</g>
	</g>
</g>
</svg>
