<?xml version="1.0" encoding="UTF-8"?>
<svg width="32px" height="32px" viewBox="0 0 32 32" version="1.1" xmlns="http://www.w3.org/2000/svg" xmlns:xlink="http://www.w3.org/1999/xlink">
    <!-- Generator: Sketch 52.6 (67491) - http://www.bohemiancoding.com/sketch -->
    <title>Instagram Icon</title>
    <desc>Created with Sketch.</desc>
    <g id="Homepage" stroke="none" stroke-width="1" fill="none" fill-rule="evenodd">
        <g id="Desktop-(XL)" transform="translate(-596.000000, -5242.000000)">
            <g id="footer-instagram" transform="translate(1.000000, 4794.000000)">
                <g id="Social-Icons" transform="translate(515.000000, 440.000000)">
                    <g id="Icon/Instagram" transform="translate(72.000000, 0.000000)">
                        <rect id="Container" x="0" y="0" width="48" height="48"></rect>
                        <path d="M24,8 C28.34528,8 28.89024,8.01856 30.5968,8.09632 C32.29984,8.17376 33.46272,8.44448 34.48064,8.84 C35.5328,9.24896 36.42496,9.79584 37.31456,10.68544 C38.20416,11.57504 38.75136,12.4672 39.16,13.51936 C39.55552,14.53728 39.82592,15.70016 39.90368,17.4032 C39.98144,19.10976 40,19.65472 40,24 C40,28.34528 39.98144,28.89024 39.90368,30.5968 C39.82592,32.29984 39.55552,33.46272 39.16,34.48064 C38.75136,35.5328 38.20416,36.42496 37.31456,37.31456 C36.42496,38.20416 35.5328,38.75104 34.48064,39.16 C33.46272,39.55552 32.29984,39.82624 30.5968,39.90368 C28.89024,39.98144 28.34528,40 24,40 C19.65472,40 19.10976,39.98144 17.4032,39.90368 C15.70016,39.82624 14.53728,39.55552 13.51936,39.16 C12.4672,38.75104 11.57504,38.20416 10.68544,37.31456 C9.79584,36.42496 9.24864,35.5328 8.84,34.48064 C8.44448,33.46272 8.17408,32.29984 8.09632,30.5968 C8.01856,28.89024 8,28.34528 8,24 C8,19.65472 8.01856,19.10976 8.09632,17.4032 C8.17408,15.70016 8.44448,14.53728 8.84,13.51936 C9.24864,12.4672 9.79584,11.57504 10.68544,10.68544 C11.57504,9.79584 12.4672,9.24896 13.51936,8.84 C14.53728,8.44448 15.70016,8.17376 17.4032,8.09632 C19.10976,8.01856 19.65472,8 24,8 Z M24,10.88288 C19.72768,10.88288 19.22176,10.8992 17.53472,10.976 C15.97472,11.04736 15.12736,11.30784 14.56384,11.52704 C13.81696,11.81728 13.28384,12.16416 12.72416,12.72384 C12.16416,13.28384 11.81728,13.81696 11.52704,14.56352 C11.30816,15.12736 11.04704,15.97472 10.97632,17.53472 C10.8992,19.22176 10.88288,19.72768 10.88288,24 C10.88288,28.27232 10.8992,28.77824 10.97632,30.46528 C11.04704,32.02528 11.30816,32.87264 11.52704,33.43648 C11.81728,34.18304 12.16416,34.71616 12.72416,35.27616 C13.28384,35.83584 13.81696,36.18272 14.56384,36.47296 C15.12736,36.69216 15.97472,36.95264 17.53472,37.024 C19.22144,37.1008 19.72736,37.11712 24,37.11712 C28.27264,37.11712 28.77856,37.1008 30.46528,37.024 C32.02528,36.95264 32.87264,36.69216 33.43616,36.47296 C34.18304,36.18272 34.71616,35.83584 35.27584,35.27616 C35.83584,34.71616 36.18272,34.18304 36.47296,33.43648 C36.69184,32.87264 36.95296,32.02528 37.02368,30.46528 C37.1008,28.77824 37.11712,28.27232 37.11712,24 C37.11712,19.72768 37.1008,19.22176 37.02368,17.53472 C36.95296,15.97472 36.69184,15.12736 36.47296,14.56352 C36.18272,13.81696 35.83584,13.28384 35.27584,12.72384 C34.71616,12.16416 34.18304,11.81728 33.43616,11.52704 C32.87264,11.30784 32.02528,11.04736 30.46528,10.976 C28.77824,10.8992 28.27232,10.88288 24,10.88288 Z M24,29.33328 C26.9456,29.33328 29.33344,26.94544 29.33344,23.99984 C29.33344,21.05456 26.9456,18.66672 24,18.66672 C21.0544,18.66672 18.66656,21.05456 18.66656,23.99984 C18.66656,26.94544 21.0544,29.33328 24,29.33328 Z M24,15.78384 C28.53792,15.78384 32.21632,19.46224 32.21632,23.99984 C32.21632,28.53776 28.53792,32.21616 24,32.21616 C19.46208,32.21616 15.78368,28.53776 15.78368,23.99984 C15.78368,19.46224 19.46208,15.78384 24,15.78384 Z M34.460928,15.459232 C34.460928,16.519392 33.601088,17.379232 32.540928,17.379232 C31.480448,17.379232 30.620928,16.519392 30.620928,15.459232 C30.620928,14.398752 31.480448,13.539232 32.540928,13.539232 C33.601088,13.539232 34.460928,14.398752 34.460928,15.459232 Z" id="Shape" fill="#FFFFFF" fill-rule="evenodd"></path>
                    </g>
                </g>
            </g>
        </g>
    </g>
</svg>
